<svg width="609" height="657" viewBox="0 0 609 657" fill="none" xmlns="http://www.w3.org/2000/svg">
<path d="M395.957 426.55C366.48 454.057 337.204 481.261 308.098 508.644C305.111 511.455 303.581 511.556 300.537 508.704C249.007 460.421 197.347 412.279 145.725 364.095C110.295 331.024 74.8867 297.928 39.4543 264.859C27.402 253.611 15.3427 242.369 3.19776 231.222C0.927652 229.138 -0.00339371 226.911 9.29214e-06 223.818C0.0801183 150.821 0.0741061 77.8246 0.108255 4.82776C0.108926 3.38327 -0.220541 1.85675 0.924982 0C6.35275 3.63081 10.629 8.4794 15.279 12.8107C72.3176 65.9396 129.269 119.162 186.25 172.353C224.235 207.812 262.262 243.227 300.165 278.774C303.248 281.666 305.056 281.839 308.27 278.824C352.724 237.115 397.305 195.543 441.876 153.96C488.271 110.673 534.688 67.4099 581.094 24.1351C588.644 17.094 596.171 10.0266 603.753 3.02016C604.924 1.93797 605.82 0.39035 608.422 0.035614C608.422 2.59464 608.422 5.01616 608.422 7.4377C608.422 28.2701 608.304 49.1038 608.524 69.9339C608.567 74.0116 607.224 76.759 604.352 79.4255C574.939 106.737 545.595 134.122 516.252 161.509C469.006 205.606 421.781 249.725 374.538 293.825C352.377 314.512 330.142 335.12 308.091 355.923C305.097 358.748 303.314 358.665 300.396 355.92C275.524 332.523 250.519 309.268 225.558 285.967C171.008 235.047 116.462 184.123 61.9038 133.212C60.4702 131.874 58.9112 130.671 57.0489 129.1C55.7452 131.89 56.0732 134.381 56.072 136.778C56.0621 157.277 56.1989 177.777 56.0335 198.275C56.0022 202.154 57.3143 204.794 60.0523 207.343C100.644 245.135 141.173 282.996 181.718 320.839C220.921 357.428 260.127 394.015 299.331 430.604C304.271 435.214 304.219 435.166 309.095 430.619C361.479 381.762 413.882 332.926 466.272 284.077C474.557 276.352 482.797 268.581 491.08 260.855C492.639 259.401 494.306 258.062 496.299 256.346C497.418 259.023 497.105 261.346 497.106 263.571C497.114 375.733 497.077 487.895 497.141 600.057C497.143 603.907 495.902 606.522 493.068 609.117C477.222 623.629 461.568 638.349 445.826 652.975C444.647 654.07 443.673 655.495 441.032 656.118C441.032 652.813 441.032 649.745 441.032 646.676C441.038 561.847 441.047 477.017 441.028 392.188C441.027 390.421 441.862 388.001 440.112 387.081C438.223 386.089 436.93 388.363 435.676 389.524C422.483 401.742 409.354 414.03 395.957 426.55Z" fill="#F85204"/>
<path d="M608.449 213.84C608.443 307.832 608.406 401.324 608.528 494.815C608.534 499.337 607.391 502.576 604.02 505.656C588.159 520.149 572.504 534.868 556.751 549.48C555.727 550.43 554.873 552.36 553.184 551.491C551.989 550.876 552.431 549.081 552.381 547.798C552.29 545.468 552.354 543.133 552.354 540.8C552.354 430.643 552.383 320.486 552.258 210.329C552.253 205.587 553.587 202.317 557.107 199.103C572.851 184.726 588.337 170.068 603.907 155.501C604.988 154.49 605.958 153.341 608.45 152.97C608.45 173.207 608.45 193.274 608.449 213.84Z" fill="#F85204"/>
<path d="M56.1139 402.84C56.1139 452.792 56.1139 502.243 56.1139 551.556C54.0954 552.44 53.3394 551.055 52.4306 550.208C35.9967 534.883 19.6065 519.511 3.13329 504.228C1.03198 502.279 0.00499776 500.262 0.00830876 497.318C0.0783778 435.031 0.0610434 372.743 0.0757984 310.456C0.0761494 308.967 0.248651 307.479 0.35389 305.78C2.77363 305.79 3.88699 307.663 5.23017 308.905C20.9923 323.477 36.6668 338.143 52.4285 352.714C55.0246 355.114 56.3093 357.63 56.2379 361.372C55.9773 375.024 56.122 388.684 56.1139 402.84Z" fill="#F75205"/>
<path d="M167.756 654.467C167.288 655.829 167.132 656.99 165.473 655.868C159.499 653.162 155.712 648.201 151.218 644.152C148.557 641.755 146.152 638.978 143.583 635.952C143.396 635.659 143.322 635.729 143.373 635.723C143.088 635.608 142.805 635.422 142.449 634.929C142.325 634.701 142.304 634.776 142.341 634.765C142.072 634.61 141.803 634.417 141.434 633.958C141.293 633.751 141.26 633.834 141.29 633.801C139.264 632.833 137.485 631.6 136.422 629.126C136.2 628.881 136.241 628.84 136.218 628.857C136.044 628.697 135.893 628.519 135.473 628.12C135.203 627.899 135.24 627.842 135.215 627.865C131.654 624.746 127.026 622.813 124.444 618.108C124.233 617.837 124.239 617.843 124.242 617.845C119.397 615.112 116.26 610.401 111.858 607.103C109.774 605.541 110.164 602.535 110.251 600.031C111.137 574.391 110.644 548.742 110.727 523.097C110.798 500.938 111.181 478.767 110.588 456.623C110.188 441.659 111.315 426.716 110.536 411.292C110.732 409.688 111.551 409.325 112.795 409.14C114.905 409.951 116.686 410.804 118.133 412.238C128.006 422.024 138.107 431.568 148.326 440.994C153.848 446.088 159.402 451.15 165.001 456.153C167.235 458.149 167.417 460.745 168.538 463.533C168.888 500.893 168.682 537.834 168.735 574.775C168.766 595.908 168.664 617.042 168.795 638.175C168.828 643.487 166.883 648.658 167.756 654.467Z" fill="#CD5727"/>
<path d="M168.113 462.118C170.561 462.732 170.147 464.728 170.147 466.506C170.156 524.65 170.151 582.794 170.129 640.938C170.129 642.564 170.471 644.316 168.735 645.865C167.547 645.307 167.749 644.259 167.75 643.284C167.794 583.031 167.632 522.778 168.113 462.118Z" fill="#3C0903"/>
<path d="M110.35 411.148C112.169 412.128 111.404 413.92 111.405 415.48C111.443 475.957 111.524 536.433 111.299 596.909C111.277 602.95 112.51 607.472 117.572 610.979C119.997 612.659 121.888 615.111 124.132 617.531C122.271 618.02 120.697 617.42 119.518 615.715C118.864 614.769 118.082 613.75 117.11 613.209C108.036 608.154 108.695 599.675 109.573 591.324C109.94 587.837 110.19 584.38 110.19 580.891C110.196 540.781 110.322 500.671 110.118 460.562C110.054 447.957 108.96 435.354 110.22 422.758C110.598 418.982 108.094 415.254 110.35 411.148Z" fill="#390301"/>
<path d="M168.387 461.721C168.349 480.365 168.254 499.02 168.253 517.675C168.249 560.151 168.291 602.628 168.363 645.597C168.409 647.992 168.405 649.895 168.383 652.211C168.677 653.11 168.788 653.639 168.476 654.564C168.257 654.918 167.925 654.987 167.758 654.959C167.509 649.782 167.356 644.633 167.357 639.483C167.362 580.578 167.391 521.673 167.479 462.304C167.646 461.601 167.749 461.363 168.096 461.427C168.341 461.729 168.372 461.732 168.387 461.721Z" fill="#440A00"/>
<path d="M168.334 461.342C168.341 461.729 167.943 461.792 167.743 461.815C167.309 460.018 165.954 458.972 164.745 457.842C147.591 441.811 130.43 425.788 113.174 409.459C116.098 408.591 118.078 410.358 120.02 412.234C129.887 421.766 139.5 431.585 149.736 440.705C155.147 445.527 160.049 450.919 165.844 455.295C167.825 456.791 168.232 458.748 168.334 461.342Z" fill="#3C0903"/>
<path d="M143.395 636.022C151.211 641.46 157.614 648.82 165.061 655.477C157.939 654.547 154.256 648.317 149.39 643.949C147.154 641.941 144.031 639.951 143.395 636.022Z" fill="#390301"/>
<path d="M124.232 618.201C128.228 620.502 131.572 623.908 135.081 627.571C130.409 626.108 126.284 623.554 124.232 618.201Z" fill="#390301"/>
<path d="M136.206 629.249C138.222 629.859 139.575 631.604 141.212 633.459C138.407 633.875 136.698 632.499 136.206 629.249Z" fill="#390301"/>
<path d="M168.501 654.83C168.269 654.409 168.281 653.9 168.328 653.008C169.265 653.191 170.346 653.724 168.501 654.83Z" fill="#3C0903"/>
<path d="M135.303 628.12C135.487 628.061 135.77 628.224 136.124 628.631C135.864 628.795 135.601 628.617 135.303 628.12Z" fill="#390301"/>
<path d="M141.404 633.984C141.597 633.917 141.901 634.082 142.292 634.501C142.091 634.575 141.803 634.397 141.404 633.984Z" fill="#390301"/>
<path d="M142.431 634.943C142.632 634.87 142.939 635.038 143.335 635.462C143.128 635.539 142.832 635.362 142.431 634.943Z" fill="#390301"/>
<path d="M164.373 628.979C164.18 635.073 165.686 640.637 165.009 646.298C164.895 647.248 165.471 648.432 164.54 649.077C163.375 649.884 162.328 648.958 161.388 648.319C160.706 647.856 160.102 647.26 159.525 646.664C150.522 637.357 140.524 629.092 131.624 619.65C127.219 614.976 121.611 611.466 117.282 606.578C115.295 604.334 114.192 601.974 114.193 598.953C114.223 539.999 114.215 481.045 114.235 422.091C114.236 420.472 113.802 418.463 115.555 417.562C117.531 416.546 118.483 418.571 119.612 419.635C130.462 429.858 141.245 440.151 152.117 450.35C154.277 452.376 156.593 454.302 159.08 455.897C163.843 458.953 165.197 463.653 165.206 468.713C165.297 519.173 165.275 569.634 165.223 620.094C165.22 622.901 164.671 625.708 164.373 628.979Z" fill="#FC5101"/>
</svg>
