<svg width="799" height="550" viewBox="0 0 799 550" fill="none" xmlns="http://www.w3.org/2000/svg">
<path d="M605.752 342.497C609.292 352.716 612.516 362.829 615.484 373.016C618.394 383 621.044 393.06 624.442 402.959C624.442 382.904 624.442 362.848 624.442 342.606C629.379 342.606 634.145 342.606 639.185 342.606C639.185 374.026 639.185 405.276 639.185 436.901C633.369 436.901 627.463 436.901 620.913 436.901C615.114 416.155 609.234 395.118 603.354 374.081C603.113 374.125 602.872 374.169 602.631 374.213C602.631 395.086 602.631 415.96 602.631 437.053C597.614 437.053 592.861 437.053 587.785 437.053C587.785 405.698 587.785 374.46 587.785 342.424C593.506 342.424 599.415 342.424 605.752 342.497Z" fill="#E5E5E5"/>
<path d="M478.373 73.3787C490.043 57.6738 501.713 41.9691 513.382 26.2636C514.075 25.3319 514.77 24.4023 515.442 23.4566C520.955 15.7041 519.914 12.5312 510.375 10.9026C502.391 9.53931 494.227 9.23145 486.142 8.46006C483.512 8.20914 480.881 7.9701 478.173 7.34302C483.627 6.85996 489.164 6.85251 494.688 6.58326C495.839 6.52717 496.943 5.50248 498.068 4.92414C497.435 3.92499 496.973 2.27866 496.136 2.05863C494.277 1.57026 492.207 1.96482 490.268 1.6858C488.259 1.39664 486.304 0.737128 484.325 0.239631C491.755 0.0998907 499.184 -0.03988 507.173 0.173194C508.628 0.404822 509.525 0.283607 510.422 0.162391C511.576 0.114875 512.73 0.0673891 514.45 0.447669C516.836 0.736487 518.657 0.597602 520.478 0.458716C523.525 0.518561 526.572 0.578376 530.23 1.07038C532.071 1.82288 533.285 2.24927 534.535 2.44642C543.166 3.80771 551.811 5.07905 560.433 6.49711C561.667 6.7002 562.797 7.53809 564.401 8.27824C559.865 10.1648 556.176 11.6992 552.173 13.3598C551.412 13.5173 550.964 13.5485 550.437 13.2649C546.014 11.7931 543.266 13.7186 541.368 17.754C540.785 18.1718 540.332 18.3729 539.533 18.5923C538.649 18.9853 538.11 19.3601 537.65 19.6813C537.728 19.6277 537.826 19.7903 537.475 19.7597C536.563 20.5991 536.003 21.4692 535.306 22.6491C519.678 43.2817 504.186 63.6047 488.694 83.9276C489.082 84.3639 489.47 84.8002 489.858 85.2365C513.037 86.0954 536.216 86.9543 559.466 88.1882C561.651 89.1846 563.764 89.8059 565.635 90.3558C565.988 93.0923 566.368 95.8197 566.68 98.5548C566.826 99.832 567.422 101.695 566.816 102.312C563.944 105.237 565.007 107.732 567.896 110.62C565.717 111.559 564.104 112.227 562.513 112.946C560.826 113.708 559.161 114.517 557.486 115.306C538.129 115.349 518.771 115.391 499.012 115.023C498.799 113.977 499.167 113.336 499.149 112.706C498.97 106.177 498.015 99.5703 498.726 93.146C499.309 87.8764 497.378 87.1043 493.16 87.4455C489.772 87.7195 486.928 86.9346 486.216 84.4405C488.876 79.4753 490.987 75.4667 493.162 71.4937C495.128 67.903 497.523 64.4909 498.999 60.7147C499.603 59.1671 498.291 56.8703 497.851 54.9144C496.19 55.8917 494.396 56.7058 492.921 57.9102C492.094 58.5849 491.514 59.8525 491.306 60.9448C490.223 66.6507 484.142 68.2731 481.647 72.8463C481.322 73.4419 479.501 73.2212 478.373 73.3787Z" fill="#757696"/>
<path d="M532.743 358.965C537.722 385.151 542.615 410.916 547.571 437.013C541.664 437.013 536.221 437.013 530.297 437.013C528.886 428.835 527.454 420.536 526.006 412.142C520.415 412.142 515.165 412.142 509.617 412.142C508.329 420.51 507.071 428.675 505.785 437.031C500.25 437.031 495.005 437.031 488.989 437.031C494.746 405.447 500.477 374.008 506.215 342.529C514.151 342.529 521.621 342.529 529.598 342.529C530.617 347.862 531.637 353.204 532.743 358.965ZM518.637 361.181C518.458 360.052 518.279 358.924 517.87 356.345C515.722 371.222 513.789 384.616 511.828 398.2C516.043 398.2 519.809 398.2 523.938 398.2C522.17 385.947 520.441 373.961 518.637 361.181Z" fill="#E4E4E4"/>
<path d="M185.017 355.89C178.781 351.737 174.32 353.699 173.407 360.44C172.398 367.891 174.581 373.731 181.095 378.013C186.363 381.476 191.652 385.073 196.268 389.329C206.102 398.396 208.232 417.84 200.853 428.964C194.498 438.541 184.616 439.152 174.57 438.242C162.305 437.131 155.764 429.973 155.116 417.649C154.978 415.025 155.096 412.387 155.096 409.483C160.609 409.483 165.882 409.483 171.664 409.483C171.664 412.373 171.417 415.208 171.717 417.983C172.278 423.186 174.982 425.771 179.596 426.004C184.257 426.24 187.026 423.989 187.94 418.602C189.306 410.549 187.835 403.337 180.838 398.113C176.038 394.53 171.075 391.143 166.474 387.321C156.1 378.705 152.994 362.697 159.934 351.125C162.004 347.674 165.741 344.544 169.44 342.893C176.311 339.827 183.772 340.215 190.931 342.594C196.918 344.584 200.784 348.894 202.068 355.016C202.974 359.341 203.073 363.835 203.565 368.562C197.62 368.562 192.359 368.562 187.34 368.562C186.635 364.316 185.963 360.277 185.017 355.89Z" fill="#E4E4E4"/>
<path d="M345.489 437.262C340.668 437.262 336.343 437.262 331.666 437.262C331.666 405.718 331.666 374.343 331.666 342.685C345.151 342.685 358.72 342.685 372.476 342.685C372.476 347.056 372.476 351.346 372.476 356.155C364.262 356.155 356.2 356.155 347.941 356.155C347.941 364.446 347.941 372.22 347.941 380.383C355.659 380.383 363.267 380.383 371.192 380.383C371.192 384.987 371.192 389.211 371.192 393.906C363.555 393.906 355.955 393.906 348.049 393.906C348.049 403.943 348.049 413.522 348.049 423.557C356.746 423.557 365.506 423.557 374.878 423.557C374.22 428.271 373.634 432.463 372.963 437.262C363.846 437.262 354.916 437.262 345.489 437.262Z" fill="#E5E5E5"/>
<path d="M439.485 82.4035C440.236 82.3626 440.988 82.3217 442.185 82.7391C445.445 87.265 449.03 85.336 452.923 84.4611C455.737 84.4616 458.107 84.4618 460.46 84.8035C458.055 85.9207 455.713 86.9745 453.264 87.3969C450.596 87.8568 449.523 88.4713 450.392 91.5717C451.262 94.6769 451.662 98.1039 451.36 101.304C450.878 106.419 450.345 111.061 457.346 111.666C457.466 111.676 457.539 112.219 457.982 113.588C455.098 113.132 452.637 112.94 450.287 112.323C447.112 111.489 444.324 111.026 443.486 115.302C439.544 116.345 442.391 117.959 443.356 118.927C455.032 130.645 461.624 144.951 464.902 160.946C465.632 164.507 466.046 168.132 465.84 171.971C464.428 168.902 463.039 165.821 461.602 162.764C448.407 134.701 426.125 121.06 395.291 120.969C392.632 120.961 389.973 120.778 386.975 120.231C388.273 119.012 389.841 117.966 391.564 117.522C394.424 116.786 397.384 116.437 400.302 115.925C400.324 115.3 400.346 114.675 400.368 114.051C398.627 113.523 396.893 112.972 395.143 112.474C393.428 111.986 391.697 111.553 389.973 111.096C390.013 110.613 390.052 110.131 390.092 109.648C391.595 109.256 393.077 108.686 394.604 108.503C399.978 107.861 400.96 106.634 399.987 101.475C399.167 97.125 398.37 92.7708 397.464 87.8826C398.846 87.322 400.891 86.4918 402.936 85.6616C403.001 85.1477 403.067 84.6338 403.132 84.1199C400.628 83.5678 398.148 82.8389 395.616 82.4977C388.833 81.5837 382.028 80.8358 375.231 80.022C388.533 80.3322 401.835 80.6059 415.135 80.9688C421.291 81.1368 427.444 81.4787 434.178 82.1259C436.355 83.4002 437.98 85.571 439.485 82.4035Z" fill="#676894"/>
<path d="M80.4969 92.611C88.8936 91.5864 97.2904 90.5618 106.433 89.7912C109.598 89.6537 112.017 89.2622 114.436 88.8708C115.837 88.7108 117.238 88.5507 119.293 88.6461C121.109 88.5774 122.271 88.2534 123.433 87.9294C124.856 87.7963 126.279 87.6632 128.393 87.7766C130.539 87.8521 131.994 87.6812 133.448 87.5103C134.508 87.4722 135.569 87.4342 137.309 87.6401C138.621 88.0312 139.276 88.367 139.882 88.2962C146.471 87.5273 146.474 87.5099 146.476 94.3548C146.48 106.388 146.478 118.421 146.479 130.455C146.479 130.455 146.077 130.533 145.429 130.514C134.775 132.74 124.72 134.026 114.393 133.553C105.107 133.128 95.7853 133.459 86.4938 133.089C86.8738 129.953 90.017 128.365 88.2216 124.323C86.3373 120.081 86.4723 114.691 86.6931 109.848C86.8575 106.24 88.3138 102.765 83.1045 100.471C85.8023 99.6235 87.5383 99.078 89.2742 98.5325C89.4018 98.0375 89.5294 97.5426 89.657 97.0476C87.9735 96.1912 86.3012 95.3119 84.6031 94.4854C83.2506 93.8272 81.8668 93.2334 80.4969 92.611Z" fill="#3E4092"/>
<path d="M80.1599 92.562C81.8668 93.2334 83.2506 93.8272 84.6031 94.4854C86.3011 95.3119 87.9735 96.1912 89.657 97.0476C89.5294 97.5426 89.4018 98.0375 89.2742 98.5325C87.5383 99.078 85.8023 99.6235 83.1045 100.471C88.3138 102.765 86.8575 106.24 86.693 109.848C86.4723 114.691 86.3373 120.081 88.2216 124.323C90.017 128.364 86.8738 129.953 86.033 133.092C81.8668 133.467 78.1758 133.473 74.0153 133.473C61.769 133.467 49.9918 133.423 38.2155 133.511C36.302 133.525 34.3928 134.12 32.4816 134.447C29.2084 134.703 25.9378 135.131 22.6615 135.18C15.2645 135.291 7.86475 135.215 0.466125 135.215C0.310745 134.579 0.155381 133.944 0 133.308C2.81326 131.499 5.82201 129.932 8.40639 127.841C20.385 118.146 32.149 108.184 44.2276 98.6179C46.753 96.6178 50.1787 95.2211 53.3741 94.7174C59.06 93.8211 64.8869 93.8195 71.3995 93.7343C74.251 93.5418 76.3576 93.0586 78.4643 92.5755C78.9171 92.5547 79.37 92.5338 80.1599 92.562Z" fill="#353892"/>
<path d="M277.466 518.462C277.463 510.469 277.639 502.97 277.383 495.485C277.246 491.476 278.749 490.113 282.616 490.37C285.418 490.556 288.345 490.599 291.056 489.99C295.203 489.057 296.526 490.56 296.495 494.512C296.406 506.167 296.339 517.827 296.582 529.478C296.63 531.741 298.119 533.975 298.944 536.222C299.791 533.999 301.32 531.792 301.37 529.551C301.621 518.233 301.576 506.906 301.441 495.585C301.393 491.603 301.844 489.175 306.936 490.252C310.286 490.96 313.905 490.514 317.397 490.394C320.425 490.29 321.506 491.621 321.486 494.571C321.396 507.725 322.051 520.928 321.059 534.008C320.736 538.266 317.166 543.895 313.45 545.956C304.553 550.889 294.615 551.039 285.142 546.473C279.81 543.902 277.554 539.229 277.486 533.449C277.429 528.621 277.469 523.791 277.466 518.462Z" fill="#13374F"/>
<path d="M374.835 79.9661C382.028 80.8358 388.833 81.5836 395.616 82.4977C398.148 82.8388 400.628 83.5677 403.132 84.1198C403.067 84.6337 403.001 85.1476 402.936 85.6615C400.891 86.4917 398.846 87.3219 397.464 87.8825C398.37 92.7707 399.167 97.1249 399.987 101.475C400.96 106.634 399.978 107.86 394.604 108.503C393.077 108.686 391.595 109.256 390.092 109.648C390.052 110.131 390.013 110.613 389.973 111.096C391.697 111.553 393.428 111.986 395.143 112.474C396.893 112.971 398.627 113.523 400.368 114.051C400.346 114.675 400.324 115.3 400.302 115.925C397.384 116.437 394.424 116.786 391.564 117.522C389.841 117.966 388.273 119.012 386.568 120.169C379.444 122.126 372.052 122.853 365.421 125.492C357.372 128.694 349.966 133.509 341.954 137.349C343.592 134.873 345.558 132.675 347.858 130.103C347.052 128.861 345.861 127.024 344.511 124.941C350.799 122.193 351.046 117.453 349.875 111.988C348.581 105.954 347.027 99.8913 346.612 93.7714C346.021 85.0786 346.422 85.055 355.227 83.0016C355.368 82.9687 355.399 82.4644 355.73 81.3198C345.829 81.0324 336.15 80.7514 326.021 80.4689C322.227 79.9511 318.885 79.4348 315.543 78.9185C335.175 79.2491 354.807 79.5797 374.835 79.9661Z" fill="#5F6094"/>
<path d="M415.137 432.352C415.136 402.225 415.136 372.587 415.136 342.682C429.066 342.682 442.668 342.682 456.537 342.682C456.537 346.919 456.537 351.179 456.537 355.922C448.468 355.922 440.392 355.922 431.952 355.922C431.952 364.277 431.952 372.167 431.952 380.635C439.553 380.635 447.274 380.635 455.288 380.635C455.288 385.434 455.288 389.673 455.288 394.426C447.616 394.426 439.882 394.426 431.693 394.426C431.693 408.842 431.693 422.761 431.693 436.973C426.144 436.973 421.056 436.973 415.505 436.973C415.388 435.665 415.263 434.253 415.137 432.352Z" fill="#E5E5E5"/>
<path d="M415.499 524.268C414.953 533.238 413.555 541.159 405.375 546.247C394.071 553.279 376.746 549.306 371.446 537.203C369.08 531.798 368.786 525.199 368.761 519.138C368.737 513.421 369.746 507.541 371.299 502.014C373.613 493.778 379.861 489.415 388.467 489.526C393.706 489.593 399.452 489.238 404.054 491.211C412.355 494.77 415.039 502.704 415.432 511.311C415.622 515.464 415.49 519.632 415.499 524.268ZM389.716 532.278C390.708 533.602 391.7 534.925 392.692 536.249C393.499 534.748 394.96 533.267 395.004 531.744C395.251 523.269 395.171 514.784 395.146 506.302C395.143 505.497 394.916 504.578 394.481 503.919C393.918 503.068 392.945 501.764 392.319 501.852C391.439 501.977 390.383 503.068 390.007 503.992C389.528 505.171 389.537 506.596 389.536 507.915C389.525 515.744 389.573 523.572 389.716 532.278Z" fill="#113D5A"/>
<path d="M243.838 342.421C260.065 342.42 275.825 342.42 291.811 342.42C291.811 347.126 291.811 351.38 291.811 356.079C286.18 356.079 280.76 356.079 274.776 356.079C274.776 383.35 274.776 410.184 274.776 437.138C269.059 437.138 263.92 437.138 258.393 437.138C258.393 410.315 258.393 383.582 258.393 356.418C252.601 356.418 247.175 356.418 241.079 356.418C241.079 352.07 240.978 348.135 241.182 344.216C241.215 343.581 242.607 343.018 243.838 342.421Z" fill="#E5E5E5"/>
<path d="M570.814 548.317C566.725 548.331 563.061 548.24 559.402 548.343C555.554 548.452 553.309 547.034 553.51 542.864C553.636 540.263 553.166 538.303 549.811 538.313C546.691 538.323 546.254 540.146 546.355 542.542C546.504 546.076 544.701 547.76 541.313 547.921C537.83 548.086 534.341 548.136 530.858 548.322C527.172 548.519 526.14 546.528 526.645 543.308C528.396 532.157 530.197 521.014 531.956 509.865C532.835 504.292 533.454 498.666 534.663 493.168C534.963 491.8 537.083 489.857 538.383 489.844C546.169 489.77 553.971 490.028 561.738 490.582C563.043 490.675 565.073 492.601 565.305 493.934C568.211 510.607 570.814 527.332 573.589 544.027C573.961 546.263 574.209 548.067 570.814 548.317ZM551.247 512.437C550.87 509.55 550.492 506.664 550.115 503.778C548.524 509.94 547.989 516.187 547.653 522.444C547.624 522.997 548.93 524.117 549.552 524.073C550.212 524.026 551.284 522.936 551.328 522.247C551.519 519.288 551.397 516.308 551.247 512.437Z" fill="#0F466B"/>
<path d="M268.639 518.128C270.217 527.206 271.86 535.838 273.054 544.532C273.208 545.651 271.139 548.071 269.919 548.202C265.644 548.661 261.226 548.799 256.997 548.162C255.475 547.933 253.967 545.342 253.113 543.519C252.066 541.284 252.752 538.022 248.58 538.394C244.525 538.756 245.543 541.709 245.51 543.965C245.464 547.124 244.141 548.55 240.971 548.425C238.48 548.326 235.981 548.426 233.486 548.405C226.814 548.35 226.071 547.596 226.538 540.778C226.741 537.808 227.198 534.848 227.667 531.903C229.623 519.637 231.63 507.379 233.611 495.117C234.08 492.216 235.105 490.349 238.689 490.361C245.816 490.385 252.944 489.941 260.07 489.649C263.536 489.506 264.787 491.752 265.226 494.575C266.421 502.271 267.463 509.991 268.639 518.128ZM247.493 520.552C247.807 521.737 248.12 522.922 248.433 524.107C248.888 524.021 249.342 523.935 249.797 523.849C249.797 518.005 249.797 512.16 249.797 506.316C249.208 506.291 248.619 506.266 248.03 506.242C247.851 510.713 247.671 515.184 247.493 520.552Z" fill="#13344A"/>
<path d="M326.472 80.4705C336.15 80.7514 345.829 81.0324 355.73 81.3199C355.399 82.4644 355.368 82.9687 355.227 83.0016C346.422 85.055 346.021 85.0786 346.612 93.7715C347.027 99.8914 348.581 105.954 349.875 111.988C351.046 117.453 350.8 122.194 344.511 124.941C345.861 127.024 347.052 128.861 347.858 130.103C345.558 132.675 343.592 134.873 341.616 137.462C331.441 147.24 322.048 157.319 315.56 169.656C310.71 178.879 306.418 188.394 302.104 197.31C301.149 192.282 302.704 179.149 307.017 168.164C310.824 158.468 315.033 148.749 320.515 139.942C325.852 131.368 333.03 123.94 340.48 114.664C330.108 116.871 320.833 118.844 311.09 120.374C310.708 118.669 310.795 117.407 310.829 116.909C317.597 116.079 323.796 115.319 329.995 114.559C329.928 113.658 329.861 112.758 329.794 111.858C327.302 111.993 324.539 111.489 322.376 112.405C318.448 114.067 316.597 112.467 314.517 108.862C317.317 108 319.669 107.277 323.458 106.112C316.694 104.247 317.05 99.8753 317.541 95.7672C318.21 90.1661 316.36 87.1564 310.395 87.2871C309.859 87.2989 309.304 86.4273 307.752 85.1172C313.386 84.4795 317.925 84.1733 322.368 83.3466C323.863 83.0684 325.111 81.467 326.472 80.4705Z" fill="#595B91"/>
<path d="M557.95 115.375C559.161 114.517 560.826 113.708 562.513 112.946C564.104 112.227 565.717 111.558 567.896 110.62C565.007 107.732 563.944 105.236 566.816 102.312C567.422 101.695 566.826 99.832 566.68 98.5548C566.368 95.8196 565.988 93.0923 565.635 90.3557C563.764 89.8059 561.651 89.1845 559.854 88.1377C582.279 88.3813 604.388 89.0503 626.561 89.9567C627.235 90.0612 627.844 89.9282 628.881 89.7191C631.042 89.7157 632.774 89.7885 634.65 90.1684C636.442 90.3204 638.091 90.1652 640.059 89.9355C641.016 89.9691 641.654 90.0772 642.541 90.448C643.208 90.9414 643.626 91.1723 644.041 91.0738C644.442 90.6093 644.845 90.474 645.258 90.7537C643.166 94.2477 642.96 97.4304 643.168 101.234C643.395 105.391 643.862 110.913 637.357 112.23C636.557 112.393 636.101 114.256 635.485 115.331C609.795 115.368 584.104 115.406 557.95 115.375Z" fill="#7E7F95"/>
<path d="M454.124 535.481C456.981 538.208 458.569 536.894 458.276 534.062C458.068 532.039 456.714 529.609 455.097 528.367C451.827 525.856 448.032 524.029 444.453 521.921C436.851 517.442 433.293 510.31 434.913 502.801C436.689 494.572 441.754 490.468 451.192 489.383C458.043 488.595 464.793 488.352 470.69 492.708C472.244 493.856 473.721 495.402 474.622 497.091C478.69 504.717 476.998 507.505 468.545 507.505C467.047 507.505 465.548 507.44 464.052 507.497C461.072 507.612 458.344 507.527 457.9 503.546C457.819 502.819 456.719 502.207 455.822 501.26C453.445 504.369 454.475 506.521 456.947 508.133C460.547 510.48 464.294 512.6 467.992 514.794C476.177 519.65 479.637 528.2 477.17 537.515C475.431 544.081 467.746 549.558 459.24 549.242C453.551 549.031 447.793 547.897 442.308 546.329C439.894 545.638 437.521 543.192 436.104 540.932C432.012 534.407 434.309 530.465 441.795 530.461C443.792 530.46 445.805 530.623 447.782 530.424C451.419 530.056 453.47 531.513 454.124 535.481Z" fill="#114060"/>
<path d="M502.67 490.418C508.345 491.174 513.841 491.152 518.639 492.972C521.536 494.07 524.558 497.707 525.366 500.773C526.596 505.437 526.693 510.712 525.93 515.514C524.867 522.196 518.694 526.056 510.524 526.437C502.418 526.816 502.418 526.816 502.398 535.011C502.366 548.441 502.364 548.284 488.845 548.413C484.206 548.458 482.389 547.231 482.482 542.24C482.774 526.599 482.701 510.948 482.506 495.304C482.452 490.95 483.934 489.179 488.285 489.567C492.911 489.98 497.559 490.145 502.67 490.418ZM501.572 507.149C501.572 507.642 501.42 508.199 501.598 508.617C502.388 510.471 503.272 512.286 504.122 514.115C505.242 512.205 506.423 510.327 507.441 508.364C507.708 507.849 507.728 506.883 507.414 506.448C506.292 504.893 504.977 503.478 503.736 502.01C503.015 503.442 502.294 504.874 501.572 507.149Z" fill="#104365"/>
<path d="M326.021 80.4689C325.111 81.467 323.863 83.0684 322.368 83.3466C317.925 84.1733 313.386 84.4795 307.752 85.1172C309.304 86.4273 309.859 87.2989 310.395 87.2871C316.36 87.1564 318.21 90.1661 317.541 95.7672C317.05 99.8753 316.694 104.247 323.458 106.112C319.669 107.277 317.317 108 314.517 108.862C316.597 112.467 318.448 114.067 322.376 112.405C324.539 111.489 327.302 111.993 329.794 111.858C329.861 112.758 329.928 113.658 329.995 114.559C323.796 115.319 317.597 116.079 310.829 116.909C310.795 117.407 310.708 118.669 310.681 120.348C310.74 120.765 310.645 120.739 310.259 120.652C308.419 121.263 306.965 121.961 305.511 122.66C292.916 127.667 280.321 132.674 267.025 137.663C265.709 138.151 265.094 138.656 264.478 139.161C263.463 139.612 262.448 140.064 260.703 140.515C258.492 139.544 257.01 138.573 255.529 137.602C262.261 132.793 269.477 128.518 275.573 123.005C280.491 118.558 284.92 113.079 288.044 107.243C294.814 94.5969 289.034 85.1941 274.695 84.6138C270.595 84.4479 266.46 85.1286 262.074 85.0647C263.125 81.6347 261.9 80.5165 258.782 80.4306C256.04 80.3551 253.308 79.9151 250.572 79.6361C271.919 79.3284 293.265 79.0206 315.078 78.8157C318.885 79.4348 322.227 79.9511 326.021 80.4689Z" fill="#565792"/>
<path d="M146.862 130.481C146.478 118.421 146.48 106.388 146.476 94.3549C146.474 87.51 146.471 87.5274 139.882 88.2962C139.276 88.367 138.621 88.0313 137.707 87.6325C142.827 86.7475 148.228 86.1144 154.386 85.7438C157.574 85.6424 160.005 85.2784 162.436 84.9143C163.533 84.7765 164.631 84.6386 166.472 84.7738C170.959 84.6055 174.703 84.1643 178.447 83.723C179.52 83.6084 180.594 83.4938 182.395 83.6701C184.596 84.1284 186.083 84.5169 187.54 84.4255C194.18 84.0085 198.341 86.6404 201.903 92.6357C206.552 100.461 204.298 104.384 196.217 107.66C189.71 110.297 183.7 114.16 177.47 117.479C177.47 117.479 177.148 117.603 176.558 117.558C174.141 118.512 172.314 119.513 170.486 120.513C162.739 123.845 154.992 127.176 146.862 130.481Z" fill="#454791"/>
<path d="M443.948 115.383C444.324 111.026 447.112 111.489 450.287 112.323C452.637 112.94 455.098 113.132 457.982 113.588C457.539 112.219 457.466 111.676 457.346 111.666C450.345 111.061 450.878 106.419 451.36 101.304C451.662 98.1039 451.262 94.6768 450.392 91.5717C449.523 88.4713 450.596 87.8568 453.264 87.3969C455.713 86.9745 458.055 85.9207 460.741 84.7644C461.509 84.0939 461.98 83.804 462.45 83.5142C464.186 83.5374 465.922 83.5607 468.188 83.9647C470.186 84.1226 472.44 84.4147 472.984 83.5855C475.091 80.373 476.653 76.8035 478.418 73.3669C478.418 73.3669 478.412 73.4177 478.392 73.3982C479.501 73.2212 481.322 73.4418 481.647 72.8462C484.142 68.273 490.223 66.6507 491.306 60.9447C491.514 59.8524 492.094 58.5848 492.921 57.9101C494.396 56.7057 496.19 55.8916 497.851 54.9143C498.291 56.8703 499.603 59.1671 498.999 60.7146C497.523 64.4908 495.128 67.9029 493.162 71.4936C490.987 75.4666 488.876 79.4752 486.216 84.4404C486.928 86.9345 489.772 87.7195 493.16 87.4454C497.378 87.1042 499.309 87.8764 498.726 93.146C498.015 99.5702 498.97 106.177 499.149 112.706C499.167 113.336 498.799 113.977 498.548 114.954C480.461 115.351 462.435 115.408 443.948 115.383Z" fill="#6C6E94"/>
<path d="M694.815 62.2146C707.081 70.5942 719.342 78.9803 731.616 87.3464C733.403 88.5641 735.255 89.6864 737.29 91.4952C737.664 96.2871 740.529 97.0276 743.897 97.5298C746.05 97.851 748.106 98.8281 750.205 99.5112C750.103 100.045 750.001 100.578 749.899 101.111C748.042 101.564 746.205 102.259 744.322 102.422C739.87 102.807 737.307 104.55 737.288 109.527C737.283 110.842 735.219 112.203 733.998 113.441C733.262 114.188 732.328 114.739 731.483 115.378C713.793 115.404 696.103 115.43 678.082 115.043C680.691 113.832 683.672 113.158 686.559 112.199C689.305 111.287 691.502 110.009 691.303 106.307C691.018 100.969 689.377 95.4665 692.678 90.2167C696.079 89.5891 699.244 89.36 702.216 88.4782C707.94 86.7796 709.056 83.5243 705.208 79.0018C702.298 75.5825 698.673 72.7723 695.307 69.3361C694.484 68.5612 693.719 68.1413 692.839 67.7182C692.723 67.715 692.585 67.5303 692.755 67.0716C693.555 65.1468 694.185 63.6807 694.815 62.2146Z" fill="#8E8E97"/>
<path d="M731.946 115.452C732.328 114.739 733.262 114.188 733.998 113.442C735.219 112.203 737.283 110.842 737.288 109.527C737.307 104.55 739.87 102.807 744.322 102.422C746.205 102.259 748.042 101.565 749.899 101.112C750.001 100.578 750.103 100.045 750.205 99.5114C748.106 98.8284 746.05 97.8513 743.897 97.5301C740.529 97.0279 737.664 96.2874 737.51 91.7458C749.901 97.6636 763.373 95.9164 776.514 96.6072C780.006 96.7907 783.519 96.7073 786.992 97.0471C788.274 97.1725 789.471 98.164 790.706 98.7604C789.68 99.8209 788.836 101.233 787.594 101.878C783.391 104.062 779.046 105.974 773.782 108.447C784.76 117.79 791.851 128.39 797.382 139.826C794.656 137.378 791.881 134.827 789.043 132.348C775.818 120.797 758.01 120.655 745.855 133.308C739.776 139.636 735.773 147.967 730.898 155.436C730.077 156.694 729.601 158.176 728.376 159.291C729.404 150.485 732.442 142.332 737.684 135.402C742.913 128.49 749.141 122.333 755.216 115.525C747.886 115.525 740.148 115.525 731.946 115.452ZM756.995 115.771C756.886 115.848 756.777 115.924 756.669 116.001C756.755 116.101 756.833 116.272 756.931 116.283C757.029 116.295 757.146 116.15 756.995 115.771Z" fill="#929296"/>
<path d="M325.516 499.149C325.501 497.365 325.566 496.028 325.463 494.704C325.237 491.826 326.275 490.413 329.395 490.437C340.376 490.522 351.358 490.501 362.339 490.407C365.238 490.383 366.749 491.335 366.525 494.434C366.43 495.75 366.395 497.143 366.714 498.404C367.724 502.4 365.804 503.382 362.247 503.439C355.518 503.546 355.523 503.656 355.519 510.321C355.514 520.97 355.353 531.622 355.57 542.266C355.659 546.67 354.437 548.589 349.666 548.46C334.198 548.041 336.667 550.381 336.485 535.17C336.377 526.186 336.325 517.197 336.53 508.217C336.615 504.482 335.268 503.124 331.605 503.343C328.877 503.505 325.566 504.049 325.516 499.149Z" fill="#123A55"/>
<path d="M694.604 61.9485C694.185 63.6807 693.555 65.1468 692.429 66.9593C662.906 47.8471 632.549 30.9907 598.857 20.9875C583.768 16.5078 568.752 10.9517 552.487 13.2333C556.176 11.699 559.865 10.1646 564.401 8.27802C562.797 7.53787 561.667 6.69998 560.433 6.49689C551.811 5.07883 543.166 3.80749 534.535 2.4462C533.285 2.24905 532.071 1.82266 530.674 1.1814C540.516 2.04083 550.562 2.9693 560.522 4.47015C571.166 6.0741 581.864 7.66556 592.3 10.2319C621.301 17.3634 646.926 31.9722 672.096 47.4274C679.612 52.0424 686.965 56.9233 694.604 61.9485Z" fill="#7E7F95"/>
<path d="M692.354 90.3204C689.376 95.4666 691.018 100.969 691.303 106.307C691.502 110.009 689.305 111.287 686.559 112.199C683.672 113.158 680.691 113.832 677.619 114.97C663.796 115.361 650.105 115.414 635.949 115.399C636.101 114.256 636.557 112.393 637.357 112.23C643.862 110.912 643.395 105.391 643.168 101.234C642.96 97.4303 643.166 94.2476 645.678 90.6975C656.888 90.3398 667.687 90.453 678.616 90.9129C681.522 92.8943 684.222 93.8119 686.842 90.3555C688.923 90.2785 690.639 90.2994 692.354 90.3204Z" fill="#888897"/>
<path d="M177.844 117.46C183.7 114.16 189.71 110.297 196.217 107.66C204.298 104.384 206.552 100.461 201.903 92.6356C198.341 86.6403 194.18 84.0084 187.54 84.4254C186.083 84.5168 184.596 84.1283 182.8 83.7097C187.063 82.977 191.637 82.3015 196.235 82.0485C213.034 81.1242 229.84 80.3379 246.643 79.5116C247.634 79.4628 248.631 79.5195 250.098 79.5816C253.308 79.9151 256.04 80.3551 258.782 80.4306C261.9 80.5165 263.125 81.6347 261.655 85.0487C260.031 85.8053 258.557 86.2215 256.755 86.2731C253.91 84.8425 251.394 83.7767 247.889 82.2922C248.248 85.7001 248.413 87.2625 248.578 88.8249C234.559 94.3564 220.504 99.7979 206.534 105.451C197.034 109.295 187.653 113.434 177.844 117.46Z" fill="#4C4E8F"/>
<path d="M484.032 0.17749C486.304 0.737152 488.259 1.39667 490.268 1.68582C492.207 1.96484 494.277 1.57028 496.136 2.05865C496.973 2.27869 497.435 3.92502 498.068 4.92416C496.943 5.5025 495.839 6.52719 494.688 6.58328C489.164 6.85254 483.627 6.85999 477.789 7.20319C462.502 7.70731 447.471 7.3049 432.549 8.39911C414.144 9.74878 395.828 12.3268 377.477 14.4137C373.354 14.8826 369.25 15.5154 365.075 15.6554C399.831 5.53711 435.333 0.497803 472.339 0.677277C476.273 0.764649 479.425 0.5513 482.577 0.337921C482.965 0.263703 483.353 0.189514 484.032 0.17749Z" fill="#676894"/>
<path d="M521.66 129.512C506.552 130.038 491.926 130.691 477.293 130.979C472.838 131.066 469.745 131.735 470.188 137.101C470.234 137.651 469.787 138.242 469.309 139.497C466.591 134.806 464.213 130.7 461.465 125.956C512.848 125.956 563.598 125.956 614.347 125.956C614.36 126.211 614.373 126.467 614.385 126.722C583.636 127.648 552.888 128.573 521.66 129.512Z" fill="#6D6D85"/>
<path d="M740.211 65.9624C739.675 63.7098 739.508 61.4461 738.316 60.0716C735.68 57.0325 732.529 54.4406 729.108 51.2141C730.335 51.2141 730.683 51.1216 730.952 51.228C735.266 52.9356 739.675 56.2192 743.848 55.9388C747.654 55.683 751.202 51.5709 754.891 49.1399C755.022 49.3366 755.352 49.655 755.292 49.7682C750.207 59.4151 754.712 65.8169 762.451 71.1809C763.206 71.7043 763.728 72.5634 765.16 74.1617C760.603 72.2929 757.007 71.0936 753.678 69.3777C750.125 67.547 747.265 67.6765 744.433 70.6826C742.762 72.4567 740.662 73.8269 737.796 74.9761C738.569 72.1023 739.342 69.2285 740.211 65.9624Z" fill="#8E8E97"/>
<path d="M402.407 35.5116C405.925 34.1511 409.065 32.8369 412.205 31.5226C412.526 31.8301 412.846 32.1375 413.167 32.445C408.478 37.4984 401.801 41.8378 406.629 50.9536C400.257 43.9328 393.879 45.6942 387.122 49.0076C390.373 43.2346 398.801 39.6682 391.404 30.6699C392.166 30.7012 392.928 30.7326 393.689 30.7639C396.469 32.3619 399.249 33.9599 402.407 35.5116Z" fill="#353892"/>
<path d="M255.183 137.686C257.01 138.573 258.492 139.544 260.371 140.554C250.383 146.179 239.399 150.033 227.518 151.531C236.624 146.944 245.731 142.357 255.183 137.686Z" fill="#4C4E8F"/>
<path d="M74.4847 133.479C78.1758 133.473 81.8668 133.467 86.0186 133.458C95.7853 133.459 105.107 133.128 114.393 133.553C124.72 134.026 134.775 132.74 145.224 130.513C141.685 131.89 137.725 134.337 133.716 134.42C114.291 134.819 94.8537 134.584 74.9528 134.272C74.4847 133.971 74.4847 133.479 74.4847 133.479Z" fill="#454791"/>
<path d="M701.86 31.9058C700.604 33.8858 699.687 35.7222 698.993 37.1119C697.461 34.7234 695.769 32.087 694.265 29.7429C695.802 27.7277 697.872 25.0128 699.955 22.2832C700.813 24.9576 699.707 29.9267 705.482 30.4976C704.387 30.9191 703.293 31.3406 701.86 31.9058Z" fill="#6D6D85"/>
<path d="M74.0153 133.473C74.4848 133.479 74.4847 133.971 74.4875 134.217C60.7976 134.496 47.1048 134.53 32.9468 134.505C34.3928 134.12 36.302 133.525 38.2155 133.511C49.9918 133.423 61.769 133.467 74.0153 133.473Z" fill="#3E4092"/>
<path d="M248.909 88.7575C248.413 87.2625 248.248 85.7001 247.889 82.2922C251.394 83.7767 253.91 84.8426 256.44 86.2403C255.206 86.9199 253.96 87.2676 252.057 87.6526C251.109 87.8884 250.819 88.087 250.529 88.2856C250.099 88.4205 249.67 88.5553 248.909 88.7575Z" fill="#565792"/>
<path d="M478.138 73.55C476.653 76.8033 475.091 80.3729 472.984 83.5854C472.44 84.4146 470.186 84.1225 468.61 84.0711C471.621 80.4424 474.739 77.0879 478.138 73.55Z" fill="#757696"/>
<path d="M452.479 84.4606C449.03 85.3358 445.445 87.2648 442.553 82.8259C445.219 82.5196 447.96 82.5848 451.272 82.9527C452.054 83.6571 452.267 84.0589 452.479 84.4606Z" fill="#6C6E94"/>
<path d="M452.923 84.4609C452.267 84.0589 452.054 83.6571 451.717 83.0656C454.969 82.9861 458.346 83.0965 462.086 83.3605C461.98 83.8039 461.509 84.0938 460.758 84.4227C458.107 84.4616 455.737 84.4615 452.923 84.4609Z" fill="#757696"/>
<path d="M178.01 83.6785C174.703 84.1642 170.959 84.6054 166.888 84.8259C170.231 84.2813 173.903 83.9577 178.01 83.6785Z" fill="#4C4E8F"/>
<path d="M162.021 84.8479C160.005 85.2782 157.574 85.6423 154.84 85.7851C156.894 85.3032 159.25 85.0424 162.021 84.8479Z" fill="#4C4E8F"/>
<path d="M114.043 88.8171C112.017 89.2621 109.598 89.6536 106.873 89.837C108.928 89.3405 111.289 89.0521 114.043 88.8171Z" fill="#454791"/>
<path d="M170.843 120.49C172.314 119.513 174.141 118.512 176.387 117.538C174.937 118.532 173.069 119.499 170.843 120.49Z" fill="#4C4E8F"/>
<path d="M78.0701 92.4998C76.3576 93.0587 74.251 93.5418 71.8484 93.8124C73.5937 93.2079 75.6348 92.8159 78.0701 92.4998Z" fill="#3E4092"/>
<path d="M482.115 0.297363C479.425 0.551116 476.273 0.764466 472.806 0.734253C475.545 0.412751 478.599 0.334838 482.115 0.297363Z" fill="#757696"/>
<path d="M439.131 82.3279C437.98 85.571 436.355 83.4002 434.636 82.2386C435.934 82.0621 437.356 82.1572 439.131 82.3279Z" fill="#6C6E94"/>
<path d="M123.095 87.8564C122.271 88.2534 121.109 88.5774 119.717 88.6851C120.578 88.2404 121.667 88.0119 123.095 87.8564Z" fill="#454791"/>
<path d="M133.204 87.3132C131.994 87.6811 130.539 87.852 128.821 87.8236C130.025 87.455 131.493 87.2856 133.204 87.3132Z" fill="#454791"/>
<path d="M305.871 122.622C306.965 121.961 308.419 121.263 310.24 120.606C309.149 121.294 307.69 121.939 305.871 122.622Z" fill="#595B91"/>
<path d="M520.055 0.383157C518.657 0.597513 516.836 0.736398 514.752 0.623666C516.204 0.350595 517.918 0.329141 520.055 0.383157Z" fill="#7E7F95"/>
<path d="M510.074 0.0306512C509.525 0.283581 508.628 0.404797 507.628 0.296429C508.259 0.0108758 508.992 -0.0450938 510.074 0.0306512Z" fill="#7E7F95"/>
<path d="M264.779 139.133C265.094 138.656 265.709 138.151 266.66 137.658C266.357 138.148 265.719 138.627 264.779 139.133Z" fill="#4C4E8F"/>
<path d="M798.092 141.773C798.182 141.892 797.878 141.982 797.878 141.982C797.878 141.982 798.002 141.654 798.092 141.773Z" fill="#929296"/>
<path d="M250.798 88.2539C250.819 88.0872 251.109 87.8886 251.667 87.636C251.645 87.7954 251.356 88.0087 250.798 88.2539Z" fill="#4C4E8F"/>
<path d="M692.678 90.2168C690.639 90.2995 688.923 90.2786 686.401 90.2948C683.225 90.4101 680.856 90.4882 678.486 90.5663C667.687 90.4531 656.888 90.3398 645.669 90.2827C644.845 90.474 644.442 90.6092 643.967 90.661C643.361 90.4468 642.827 90.316 642.292 90.1854C641.654 90.0772 641.016 89.969 639.699 89.8164C637.516 89.8017 636.011 89.8315 634.507 89.8612C632.774 89.7884 631.042 89.7156 628.559 89.6504C627.372 89.6784 626.934 89.6989 626.496 89.7194C604.388 89.0503 582.279 88.3812 559.782 87.7626C536.216 86.9542 513.037 86.0953 489.858 85.2365C489.47 84.8001 489.082 84.3638 488.694 83.9275C504.186 63.6046 519.678 43.2817 535.576 22.5078C536.597 21.3013 537.212 20.5458 537.826 19.7902C537.826 19.7902 537.728 19.6276 537.993 19.7009C538.798 19.3742 539.338 18.9741 539.878 18.574C540.332 18.3728 540.785 18.1717 541.717 17.6694C544.969 16.1054 547.743 14.8425 550.516 13.5797C550.964 13.5484 551.412 13.5172 552.173 13.3598C568.752 10.9518 583.768 16.5079 598.857 20.9876C632.549 30.9908 662.906 47.8473 692.258 67.4182C692.585 67.5304 692.723 67.7152 692.999 67.9922C693.972 68.7433 694.669 69.2172 695.366 69.6912C698.673 72.7724 702.298 75.5826 705.208 79.0019C709.056 83.5244 707.94 86.7797 702.216 88.4784C699.244 89.3601 696.079 89.5892 692.678 90.2168ZM525.617 76.4839C547.451 77.1878 569.285 77.8917 591.925 78.6216C590.997 77.1407 590.752 76.5279 590.324 76.0981C576.572 62.3038 560.179 57.0607 541.07 61.3066C534.077 62.8606 527.927 66.16 524.061 72.5697C523.327 73.7864 521.155 75.8047 525.617 76.4839ZM647.842 60.3304C646.227 59.8652 644.612 59.4 643.536 59.0901C644.497 62.0747 645.423 64.9515 646.097 67.0443C649.011 66.8242 651.861 66.6089 654.129 66.4375C653.369 64.1221 652.397 61.1637 651.414 58.168C651.715 58.0944 651.528 58.0944 651.397 58.1796C650.426 58.81 649.465 59.4573 647.842 60.3304Z" fill="#1B1B1C"/>
<path d="M550.437 13.2648C547.743 14.8425 544.969 16.1054 541.847 17.4528C543.266 13.7185 546.014 11.793 550.437 13.2648Z" fill="#7E7F95"/>
<path d="M537.475 19.7595C537.212 20.5457 536.597 21.3013 535.713 22.198C536.003 21.4691 536.563 20.599 537.475 19.7595Z" fill="#7E7F95"/>
<path d="M539.533 18.592C539.338 18.9739 538.798 19.374 537.915 19.7544C538.11 19.3599 538.649 18.985 539.533 18.592Z" fill="#7E7F95"/>
<path d="M518.674 361.578C520.441 373.961 522.17 385.947 523.938 398.2C519.809 398.2 516.043 398.2 511.828 398.2C513.789 384.616 515.722 371.222 517.87 356.345C518.279 358.924 518.458 360.052 518.674 361.578Z" fill="#1B1B1C"/>
<path d="M389.658 531.839C389.573 523.572 389.525 515.743 389.536 507.914C389.537 506.595 389.528 505.171 390.007 503.992C390.383 503.068 391.439 501.977 392.319 501.852C392.945 501.763 393.918 503.068 394.481 503.919C394.916 504.578 395.143 505.497 395.146 506.302C395.172 514.783 395.251 523.269 395.004 531.744C394.96 533.267 393.499 534.748 392.692 536.249C391.7 534.925 390.708 533.601 389.658 531.839Z" fill="#1B1B1C"/>
<path d="M551.319 512.886C551.397 516.308 551.519 519.288 551.328 522.247C551.284 522.936 550.212 524.026 549.552 524.073C548.93 524.117 547.624 522.997 547.653 522.444C547.989 516.187 548.524 509.94 550.115 503.778C550.492 506.664 550.87 509.551 551.319 512.886Z" fill="#13344A"/>
<path d="M247.492 520.104C247.671 515.184 247.851 510.713 248.03 506.241C248.619 506.266 249.208 506.291 249.797 506.316C249.797 512.16 249.797 518.005 249.797 523.849C249.342 523.935 248.888 524.021 248.433 524.107C248.12 522.922 247.807 521.737 247.492 520.104Z" fill="#1B1B1C"/>
<path d="M634.65 90.1685C636.011 89.8315 637.516 89.8018 639.38 89.891C638.091 90.1652 636.442 90.3204 634.65 90.1685Z" fill="#888897"/>
<path d="M626.561 89.9567C626.934 89.6988 627.372 89.6783 628.131 89.7265C627.844 89.9281 627.235 90.0611 626.561 89.9567Z" fill="#888897"/>
<path d="M642.541 90.4479C642.827 90.316 643.361 90.4467 643.97 90.9902C643.626 91.1722 643.208 90.9414 642.541 90.4479Z" fill="#888897"/>
<path d="M501.573 506.727C502.294 504.874 503.015 503.442 503.736 502.01C504.977 503.478 506.292 504.893 507.414 506.448C507.728 506.883 507.708 507.849 507.441 508.364C506.423 510.327 505.242 512.205 504.122 514.115C503.272 512.286 502.388 510.471 501.598 508.617C501.42 508.199 501.572 507.642 501.573 506.727Z" fill="#1B1B1C"/>
<path d="M695.307 69.3362C694.669 69.2172 693.972 68.7433 693.115 67.9954C693.719 68.1414 694.483 68.5613 695.307 69.3362Z" fill="#7E7F95"/>
<path d="M757.125 115.923C757.146 116.15 757.029 116.295 756.931 116.283C756.833 116.271 756.755 116.101 756.669 116C756.777 115.924 756.886 115.848 757.125 115.923Z" fill="#1A1A1A"/>
<path d="M678.616 90.913C680.856 90.4883 683.225 90.4102 686.036 90.3928C684.222 93.812 681.522 92.8943 678.616 90.913Z" fill="#8E8E97"/>
<path d="M525.2 76.4586C521.155 75.8048 523.327 73.7865 524.061 72.5698C527.927 66.16 534.077 62.8607 541.07 61.3067C560.179 57.0607 576.572 62.3039 590.324 76.0981C590.752 76.528 590.997 77.1407 591.925 78.6216C569.285 77.8918 547.451 77.1878 525.2 76.4586Z" fill="#757696"/>
<path d="M648.172 60.215C649.465 59.4574 650.426 58.8101 651.397 58.1797C651.528 58.0945 651.715 58.0945 651.414 58.1681C652.397 61.1637 653.369 64.1222 654.129 66.4375C651.861 66.6089 649.011 66.8243 646.097 67.0444C645.423 64.9515 644.497 62.0748 643.536 59.0901C644.612 59.4001 646.227 59.8653 648.172 60.215Z" fill="#6D6D85"/>
</svg>
